
<svg viewBox="0.366 1.832 23.342 19.695" width="23.342" height="19.695">
  <path d="M 22.979 11.315 L 21.521 11.315 L 21.521 9.855 C 21.521 9.419 21.228 9.126 20.792 9.126 L 19.331 9.126 L 19.331 7.668 C 19.331 7.23 19.041 6.938 18.602 6.938 L 17.143 6.938 L 17.143 5.48 L 18.602 5.48 C 19.041 5.48 19.331 5.187 19.331 4.75 L 19.331 2.562 C 19.331 2.123 19.041 1.832 18.602 1.832 L 16.413 1.832 C 15.976 1.832 15.684 2.123 15.684 2.562 L 15.684 4.02 L 14.225 4.02 C 13.788 4.02 13.496 4.312 13.496 4.75 L 13.496 6.938 L 10.578 6.938 L 10.578 4.75 C 10.578 4.312 10.287 4.02 9.849 4.02 L 8.391 4.02 L 8.391 2.562 C 8.391 2.123 8.099 1.832 7.661 1.832 L 5.472 1.832 C 5.034 1.832 4.742 2.123 4.742 2.562 L 4.742 4.75 C 4.742 5.187 5.034 5.48 5.472 5.48 L 6.931 5.48 L 6.931 6.938 L 5.472 6.938 C 5.034 6.938 4.742 7.23 4.742 7.668 L 4.742 9.126 L 3.284 9.126 C 2.846 9.126 2.554 9.419 2.554 9.855 L 2.554 11.315 L 1.095 11.315 C 0.657 11.315 0.366 11.606 0.366 12.044 L 0.366 18.609 C 0.366 19.047 0.657 19.339 1.095 19.339 L 3.284 19.339 C 3.722 19.339 4.013 19.047 4.013 18.609 L 4.013 14.962 L 4.742 14.962 L 4.742 18.609 C 4.742 19.047 5.034 19.339 5.472 19.339 L 6.931 19.339 L 6.931 20.798 C 6.931 21.236 7.224 21.527 7.661 21.527 L 10.578 21.527 C 11.016 21.527 11.307 21.236 11.307 20.798 L 11.307 18.609 C 11.307 18.171 11.016 17.88 10.578 17.88 L 8.391 17.88 L 8.391 17.151 L 15.684 17.151 L 15.684 17.88 L 13.496 17.88 C 13.058 17.88 12.767 18.171 12.767 18.609 L 12.767 20.798 C 12.767 21.236 13.058 21.527 13.496 21.527 L 16.413 21.527 C 16.851 21.527 17.143 21.236 17.143 20.798 L 17.143 19.339 L 18.602 19.339 C 19.041 19.339 19.331 19.047 19.331 18.609 L 19.331 14.962 L 20.061 14.962 L 20.061 18.609 C 20.061 19.047 20.354 19.339 20.792 19.339 L 22.979 19.339 C 23.417 19.339 23.708 19.047 23.708 18.609 L 23.708 12.044 C 23.708 11.606 23.417 11.315 22.979 11.315 Z M 10.578 13.502 C 10.578 13.94 10.287 14.232 9.849 14.232 L 7.661 14.232 C 7.224 14.232 6.931 13.94 6.931 13.502 L 6.931 11.315 C 6.931 10.877 7.224 10.585 7.661 10.585 L 9.849 10.585 C 10.287 10.585 10.578 10.877 10.578 11.315 L 10.578 13.502 Z M 17.143 13.502 C 17.143 13.94 16.851 14.232 16.413 14.232 L 14.225 14.232 C 13.788 14.232 13.496 13.94 13.496 13.502 L 13.496 11.315 C 13.496 10.877 13.788 10.585 14.225 10.585 L 16.413 10.585 C 16.851 10.585 17.143 10.877 17.143 11.315 L 17.143 13.502 Z" style=""></path>
</svg>