
<svg viewBox="1.267 3.393 21.441 17.161" width="21.441" height="17.161">
  <g id="bnb" transform="matrix(0.306305, 0, 0, 0.306305, -0.264977, -0.278866)" style="">
    <ellipse class="cls-1" cx="40" cy="34.988" rx="35" ry="23" style="fill: none; stroke: var(--theme-secondary); stroke-linecap: round; stroke-linejoin: round; stroke-width: 4px;"></ellipse>
    <path class="cls-1" d="M29.264,19.258c-8.546,2.066-15.195,6.491-17.441,11.8" style="fill: none; stroke: var(--theme-secondary); stroke-linecap: round; stroke-linejoin: round; stroke-width: 4px;"></path>
    <path class="cls-1" d="M5,34.988V47.835a13,13,0,0,0,4.778,10.08c7.637,6.225,18.353,10.1,30.222,10.1s22.585-3.873,30.222-10.1A13,13,0,0,0,75,47.835V34.988" style="fill: none; stroke: var(--theme-secondary); stroke-linecap: round; stroke-linejoin: round; stroke-width: 4px;"></path>
    <line class="cls-1" x1="40" x2="40" y1="67.656" y2="57.988" style="fill: none; stroke: var(--theme-secondary); stroke-linecap: round; stroke-linejoin: round; stroke-width: 4px;"></line>
    <line class="cls-1" x1="51.667" x2="51.667" y1="66.72" y2="62.188" style="fill: none; stroke: var(--theme-secondary); stroke-linecap: round; stroke-linejoin: round; stroke-width: 4px;"></line>
    <line class="cls-1" x1="63.333" x2="63.333" y1="61.679" y2="52.988" style="fill: none; stroke: var(--theme-secondary); stroke-linecap: round; stroke-linejoin: round; stroke-width: 4px;"></line>
    <line class="cls-1" x1="28.333" x2="28.333" y1="66.042" y2="57" style="fill: none; stroke: var(--theme-secondary); stroke-linecap: round; stroke-linejoin: round; stroke-width: 4px;"></line>
    <line class="cls-1" x1="16.667" x2="16.667" y1="62.042" y2="52.412" style="fill: none; stroke: var(--theme-secondary); stroke-linecap: round; stroke-linejoin: round; stroke-width: 4px;"></line>
    <path style="fill: var(--theme-secondary);" d="M49.623,32.5l-8.69-5.708a1.842,1.842,0,0,0-1.866,0L30.377,32.5a1.842,1.842,0,0,1-1.866,0l-1.866-1.226a.679.679,0,0,1,0-1.226L38.134,22.5a3.683,3.683,0,0,1,3.732,0L53.355,30.05a.679.679,0,0,1,0,1.226L51.489,32.5A1.842,1.842,0,0,1,49.623,32.5Z"></path>
    <path style="fill: var(--theme-secondary);" d="M40,48a3.449,3.449,0,0,1-1.866-.508L26.645,39.942a.679.679,0,0,1,0-1.226l1.866-1.226a1.842,1.842,0,0,1,1.866,0l8.69,5.708a1.842,1.842,0,0,0,1.866,0l8.69-5.708a1.842,1.842,0,0,1,1.866,0l1.866,1.226a.679.679,0,0,1,0,1.226L41.866,47.488A3.449,3.449,0,0,1,40,48Z"></path>
    <path style="fill: var(--theme-secondary);" d="M42.8,34.383l-1.866-1.226a1.842,1.842,0,0,0-1.866,0L37.2,34.383a.679.679,0,0,0,0,1.226l1.866,1.226a1.842,1.842,0,0,0,1.866,0L42.8,35.609A.679.679,0,0,0,42.8,34.383Z"></path>
    <path style="fill: var(--theme-secondary);" d="M25.645,34.383l-1.866-1.226a1.842,1.842,0,0,0-1.866,0l-1.866,1.226a.679.679,0,0,0,0,1.226l1.866,1.226a1.842,1.842,0,0,0,1.866,0l1.866-1.226A.679.679,0,0,0,25.645,34.383Z"></path>
    <path style="fill: var(--theme-secondary);" d="M59.953,34.383l-1.866-1.226a1.842,1.842,0,0,0-1.866,0l-1.866,1.226a.679.679,0,0,0,0,1.226l1.866,1.226a1.842,1.842,0,0,0,1.866,0l1.866-1.226A.679.679,0,0,0,59.953,34.383Z"></path>
  </g>
</svg>