<svg viewBox="0 0 500 700" width="100%" height="100%">
      <path
        d="M 330.057 181.03 L 414.404 340.723 L 245.709 340.723 L 330.057 181.03 Z"
        data-bx-shape="triangle 245.709 181.03 168.695 159.693 0.5 0 1@d0f01caf"
        fill="rgb(107, 113, 226)"
        transform="matrix(0.422005, -0.906593, 0.906593, 0.422005, 61.369713, 480.742493)"
      ></path>
      <path
        d="M 330.057 181.03 L 414.404 340.723 L 245.709 340.723 L 330.057 181.03 Z"
        data-bx-shape="triangle 245.709 181.03 168.695 159.693 0.5 0 1@d0f01caf"
        fill="rgb(107, 113, 226)"
        transform="matrix(0.422005, -0.906593, 0.906593, 0.422005, -355.36731, 345.886261)"
      ></path>
      <path
        d="M 330.057 181.03 L 414.404 340.723 L 245.709 340.723 L 330.057 181.03 Z"
        data-bx-shape="triangle 245.709 181.03 168.695 159.693 0.5 0 1@d0f01caf"
        fill="rgb(107, 113, 226)"
        transform="matrix(-0.090503, -0.995896, 0.995896, -0.090503, -224.84404, 892.794861)"
      ></path>
      <path
        d="M 330.057 181.03 L 414.404 340.723 L 245.709 340.723 L 330.057 181.03 Z"
        data-bx-shape="triangle 245.709 181.03 168.695 159.693 0.5 0 1@d0f01caf"
        fill="rgb(107, 113, 226)"
        transform="matrix(0.045395, -0.998969, 0.998969, 0.045395, 155.906082, 410.946838)"
      ></path>
      <ellipse
        fill="rgb(143, 118, 203)"
        cx="68.602"
        cy="261.935"
        rx="57.843"
        ry="57.843"
      ></ellipse>
      <ellipse
        fill="rgb(143, 118, 203)"
        cx="486.394"
        cy="397.444"
        rx="57.843"
        ry="57.843"
      ></ellipse>
      <ellipse
        fill="rgb(143, 118, 203)"
        cx="417.663"
        cy="127.246"
        rx="35.339"
        ry="35.339"
      ></ellipse>
      <ellipse
        fill="rgb(143, 118, 203)"
        cx="77.772"
        cy="420.463"
        rx="16.671"
        ry="16.671"
      ></ellipse>
      <ellipse
        fill="rgb(143, 118, 203)"
        cx="122.446"
        cy="463.804"
        rx="16.671"
        ry="16.671"
      ></ellipse>
      <ellipse
        fill="rgb(143, 118, 203)"
        cx="79.105"
        cy="104.743"
        rx="16.671"
        ry="16.671"
      ></ellipse>
      <path
        d="M 264.75 166.977 L 332.408 314.274 L 197.092 314.274 L 264.75 166.977 Z"
        data-bx-shape="triangle 197.092 166.977 135.316 147.297 0.5 0 1@5a3b7280"
        fill="rgb(107, 113, 226)"
        transform="matrix(0.564232, 0.825616, 0.832822, -0.553688, 131.995804, 558.848083)"
      ></path>
      <ellipse
        fill="rgb(143, 118, 203)"
        cx="454.468"
        cy="-590.943"
        rx="32.606"
        ry="28.337"
        transform="matrix(0.853952, -0.520351, -0.520351, -0.853952, -238.975967, 359.285767)"
      ></ellipse>
    </svg>