<!doctype html>
<svg viewBox="-21.422 41.446 618.284 454.898" width="618.284" height="454.898">
  <defs>
  <pattern id="bg" patternUnits="userSpaceOnUse" width="130" height="24">
  <path style="stroke: rgb(0, 0, 0); fill: rgb(213, 255, 234); stroke-width: 0px;" d="M -20.627 133.204 L 14.608 50.729 C 23.03 41.468 65.201 70.456 63.203 79.576 L -1.267 151.209 C -3.226 155.462 -25.908 144.667 -20.627 133.204 Z"></path>
  <path style="stroke: rgb(0, 0, 0); stroke-width: 0px; fill: rgb(218, 247, 255); stroke-linejoin: round;" d="M 38.302 66.077 L 52.192 44.473 L 80.889 41.652 C 82.851 40.18 84.2 47.048 82.238 48.52 L 55.012 49.501 L 42.013 69 C 41.869 69.313 37.658 67.473 38.302 66.077 Z"></path>
  <path style="stroke-width: 0px; stroke: rgb(255, 255, 221); fill: rgb(248, 231, 255);" d="M 35.087 206.427 L -7.613 242.848 L -5.939 245.22 L 37.32 208.66 L 35.087 206.427 Z"></path>
  <ellipse style="stroke-width: 0px; stroke: rgb(213, 255, 249); paint-order: fill; fillRule: nonzero; fill: url(#gradient-1);" cx="53.677" cy="188.014" rx="27.58" ry="27.58"></ellipse>
  <path d="M 57.516 188.766 Q 57.516 188.293 57.947 188.02 Q 58.406 187.729 59.007 187.905 Q 59.675 188.101 60.099 188.766 Q 60.575 189.514 60.499 190.488 Q 60.413 191.578 59.669 192.494 Q 58.844 193.51 57.516 193.932 Q 56.06 194.396 54.502 193.986 Q 52.81 193.54 51.551 192.21 Q 50.193 190.776 49.767 188.766 Q 49.31 186.614 50.059 184.461 Q 50.857 182.169 52.78 180.564 Q 54.818 178.863 57.516 178.434 Q 60.362 177.981 63.113 179.072 Q 66.003 180.219 67.955 182.739 Q 70 185.378 70.431 188.766 Q 70.882 192.305 69.447 195.654 Q 67.952 199.144 64.835 201.442 Q 61.595 203.832 57.516 204.265 Q 53.285 204.713 49.336 202.934 Q 45.248 201.091 42.603 197.376 Q 39.868 193.537 39.434 188.766 Q 38.987 183.843 41.111 179.295 Q 43.301 174.608 47.614 171.616 Q 52.054 168.536 57.516 168.101 Q 63.131 167.654 68.279 170.124 Q 73.565 172.66 76.903 177.573 Q 80.328 182.612 80.764 188.766 Q 81.21 195.074 78.395 200.82 Q 75.512 206.706 70.001 210.39 Q 64.362 214.161 57.516 214.597 Q 50.516 215.042 44.17 211.882 Q 37.686 208.652 33.654 202.542 Q 29.538 196.304 29.102 188.766 Q 28.657 181.074 32.163 174.129 Q 35.739 167.045 42.448 162.667 Q 49.286 158.206 57.516 157.769 Q 57.837 157.752 57.516 157.769" data-bx-shape="spiral 57.516 188.766 0 30.997 0 1080 1@af738b7a" style="fill: none; stroke: rgb(255, 255, 255);" transform="matrix(0.84107, 0, 0, 0.862964, 7.322446, 24.793557)"></path>
  <path style="stroke: rgb(0, 0, 0); stroke-width: 0px; fill: rgb(255, 230, 240);" d="M -6.053 423.448 C -11.035 426.836 47.951 455.122 56.846 449.074 L 22.325 495.242 C 13.063 500.033 -14.588 487.877 -7.536 484.229 L -6.053 423.448 Z"></path>
  <path style="stroke-width: 0px; stroke: rgb(0, 0, 0); fill: rgb(224, 255, 228);" d="M 55.074 448.197 C 61.156 447.142 61.113 432.219 50.883 433.994 C 63.388 426.835 51.52 410.392 41.998 415.843 C 54.271 407.821 41.952 393.044 32.606 399.152 C 38.761 398.317 42.829 408.854 32.478 410.258 C 30.279 399.903 12.128 402.569 14.327 412.924 C 7.233 400.583 -11.171 410.737 -4.077 423.078 C -11.048 424.126 40.225 450.43 55.074 448.197 Z"></path>
  <ellipse style="stroke: rgb(0, 0, 0); stroke-width: 0px; fill: rgb(220, 254, 255);" cx="511.865" cy="137.376" rx="84.997" ry="18.987"></ellipse>
  <path style="stroke: rgb(0, 0, 0); stroke-width: 0px; fill: rgb(253, 255, 207);" d="M 503.21 65.795 L 448.879 94.64 L 448.319 137.769 L 503.49 141.41 L 503.21 65.795 Z"></path>
  <ellipse style="stroke-width: 0px; stroke: rgb(255, 235, 213); fill: rgb(255, 242, 218);" cx="503.047" cy="274.145" rx="70.07" ry="70.07"></ellipse>
  <ellipse style="stroke: rgb(0, 0, 0); stroke-width: 0px; fill: rgb(255, 255, 255);" cx="501.972" cy="273.377" rx="21.359" ry="21.359"></ellipse>
  <path style="stroke: rgb(0, 0, 0); stroke-width: 0px; fill: rgb(255, 235, 253);" d="M 499.529 210.796 C 499.028 208.693 473.856 216.759 473.134 218.907 C 472.981 220.902 449.985 236.961 449.626 235.679 C 440.105 243.952 436.346 259.838 437.528 262.486 C 439.709 264.539 437.863 288.315 436.566 287.094 C 433.842 297.2 444.593 313.118 448.526 313.627 C 453.894 312.03 472.985 322.703 472.584 334.66 C 477.907 342.09 497.338 344.296 502.004 340.572 C 503.152 336.474 521.37 335.155 520.563 337.547 C 519.756 339.939 509.427 297.817 509.427 297.817 C 508.84 296.055 502.791 299.135 502.278 300.567 C 500.538 302.081 493.671 300.017 492.793 298.504 C 492.673 297.346 484.424 292.802 482.482 293.968 C 481.023 294.769 475.752 288.431 476.021 286.132 C 476.86 285.23 475.077 278.073 473.271 277.196 C 471.965 274.508 472.127 268.186 475.059 266.885 C 477.826 266.113 479.719 260.248 480.145 257.812 C 480.471 255.95 482.945 252.345 486.469 252.726 C 488.755 254.132 494.547 252.703 495.542 249.289 C 498.554 247.005 503.022 248.211 502.829 249.777 L 503.701 210.342 L 499.529 210.796 Z"></path>
  <ellipse style="stroke-width: 0px; stroke: rgb(222, 255, 229); fill: rgb(236, 174, 255);" cx="448.012" cy="261.976" rx="1.725" ry="6.249" transform="matrix(0.907329, -0.420422, 0.420424, 0.907328, -62.593965, 212.277518)"></ellipse>
  <ellipse style="stroke-width: 0px; stroke: rgb(222, 255, 229); fill: rgb(252, 255, 217);" cx="448.012" cy="261.976" rx="1.725" ry="6.249" transform="matrix(0.942035, 0.335515, -0.335516, 0.942035, 121.16032, -108.377025)"></ellipse>
  <ellipse style="stroke-width: 0px; stroke: rgb(222, 255, 229); fill: rgb(217, 255, 236);" cx="448.012" cy="261.976" rx="1.725" ry="6.249" transform="matrix(0.19061, 0.981666, -0.981666, 0.19061, 641.882221, -227.766563)"></ellipse>
  <ellipse style="stroke-width: 0px; stroke: rgb(222, 255, 229); fill: rgb(254, 255, 217);" cx="448.012" cy="261.976" rx="1.725" ry="6.249" transform="matrix(0.994522, -0.104527, 0.104528, 0.994522, 2.301605, 21.647105)"></ellipse>
  <ellipse style="stroke-width: 0px; stroke: rgb(222, 255, 229); fill: rgb(255, 179, 179);" cx="448.012" cy="261.976" rx="1.725" ry="6.249" transform="matrix(0.705442, 0.708767, -0.708769, 0.705441, 327.700205, -263.382668)"></ellipse>
  <ellipse style="stroke-width: 0px; stroke: rgb(222, 255, 229); fill: rgb(255, 176, 176);" cx="448.012" cy="261.976" rx="1.725" ry="6.249" transform="matrix(0.907329, -0.420422, 0.420424, 0.907328, -46.021478, 259.961983)"></ellipse>
  <ellipse style="stroke-width: 0px; stroke: rgb(222, 255, 229); fill: rgb(208, 244, 255);" cx="448.012" cy="261.976" rx="1.725" ry="6.249" transform="matrix(-0.039151, 0.999233, -0.999233, -0.039151, 747.89968, -144.362538)"></ellipse>
  <ellipse style="stroke-width: 0px; stroke: rgb(222, 255, 229); fill: rgb(239, 169, 255);" cx="448.012" cy="261.976" rx="1.725" ry="6.249" transform="matrix(0.403586, -0.914942, 0.914943, 0.403584, 28.128796, 605.824359)"></ellipse>
  <ellipse style="stroke-width: 0px; stroke: rgb(222, 255, 229); fill: rgb(255, 249, 217);" cx="448.012" cy="261.976" rx="1.725" ry="6.249" transform="matrix(0.99828, 0.058625, -0.058624, 0.99828, 55.924146, 36.935567)"></ellipse>
  <ellipse style="stroke-width: 0px; stroke: rgb(222, 255, 229); fill: rgb(217, 255, 250);" cx="448.012" cy="261.976" rx="1.725" ry="6.249" transform="matrix(0.04786, 0.998854, -0.998854, 0.047861, 733.584983, -151.765874)"></ellipse>
  <ellipse style="stroke-width: 0px; stroke: rgb(222, 255, 229); fill: rgb(203, 245, 255);" cx="448.012" cy="261.976" rx="1.725" ry="6.249" transform="matrix(0.181014, -0.983481, 0.983481, 0.181012, 108.611194, 667.636128)"></ellipse>
  <ellipse style="stroke-width: 0px; stroke: rgb(222, 255, 229); fill: rgb(217, 255, 236);" cx="448.012" cy="261.976" rx="1.725" ry="6.249" transform="matrix(0.907329, -0.420422, 0.420424, 0.907328, -25.026074, 188.451605)"></ellipse>
  <ellipse style="stroke-width: 0px; stroke: rgb(222, 255, 229); fill: rgb(200, 242, 255);" cx="448.012" cy="261.976" rx="1.725" ry="6.249" transform="matrix(0.58942, 0.807827, -0.807827, 0.589419, 436.163099, -295.006936)"></ellipse>
  <path style="stroke: rgb(0, 0, 0); stroke-width: 0px; fill: url(#gradient-2);" d="M 516.563 406.229 C 522.044 386.362 487.824 378.569 475.15 393.697 C 476.244 386.538 447.237 365.024 446.659 368.803 C 444.804 368.424 450.823 390.349 454.775 391.157 C 454.003 387.9 431.99 386.306 432.579 388.787 C 430.256 391.485 450.248 406.309 451.629 404.705 C 449.451 402.161 431.915 410.558 433.572 412.495 C 432.783 415.803 468.316 419.549 469.353 415.204 C 484.63 445.874 513.581 429.768 513.581 429.768 L 516.563 406.229 Z"></path>
  <path style="stroke-width: 0px; stroke: rgb(0, 0, 0); fill: rgb(254, 205, 205);" d="M -2.516 303.303 L 5.055 292.808 C 5.093 292.355 9.222 292.871 9.184 293.324 L 32.585 267.171 C 34.365 265.67 42.623 272.036 40.843 273.537 L 25.702 306.228 C 26.236 305.872 26.88 311.522 26.562 311.734 L -2.172 364.213 L -2.516 303.303 Z"></path>
  <path style="stroke: rgb(0, 0, 0); stroke-width: 0px; fill: rgb(234, 247, 221);" d="M 30.416 269.649 C 30.149 269.648 31.425 266.437 31.805 266.284 C 34.228 263.525 43.734 271.948 42.293 273.589 C 42.167 274.116 40.066 275.573 39.906 275.488 C 40.337 274.65 39.29 272.125 39.313 272.487 C 39.205 272.161 36.765 273.044 36.661 273.263 C 36.678 273.17 36.278 270.384 35.886 270.529 C 35.807 270.251 33.121 270.795 33.152 271.059 C 33.189 270.541 32.898 268.692 32.662 268.774 C 32.287 268.394 30.555 269.259 30.416 269.649 Z"></path>
  <path style="stroke: rgb(0, 0, 0); stroke-width: 0px; fill: rgb(252, 225, 255);" d="M 507.905 62.596 C 507.36 58.466 492.764 63.3 493.681 70.244 C 488.419 67.471 478.943 73.423 479.152 77.891 C 474.547 75.822 464.657 80.055 464.622 85.385 C 460.228 83.238 452.265 87.958 452.08 92.268 C 448.113 91.593 442.612 94.828 442.749 97.774 C 443.897 102.498 456.145 102.176 457.433 98.08 C 461.24 102.869 472.416 102.588 475.786 98.08 C 479.254 102.279 490.013 102.651 492.917 98.233 C 496.081 104.922 510.282 104.935 510.046 98.539 L 507.905 62.596 Z"></path>
    </pattern>
    <linearGradient gradientUnits="userSpaceOnUse" x1="53.677" y1="160.434" x2="53.677" y2="215.594" id="gradient-1">
      <stop offset="0" style="stop-color: rgb(255, 222, 253);"></stop>
      <stop offset="0.254" style="stop-color: rgb(215, 250, 255);"></stop>
      <stop offset="0.475" style="stop-color: rgb(255, 221, 221);"></stop>
      <stop offset="0.648" style="stop-color: rgb(245, 244, 213);"></stop>
      <stop offset="0.839" style="stop-color: rgb(255, 213, 244);"></stop>
      <stop offset="1" style="stop-color: rgb(202, 255, 239);"></stop>
    </linearGradient>
    <linearGradient gradientUnits="userSpaceOnUse" x1="469.74" y1="357.705" x2="469.74" y2="432.218" id="gradient-2" gradientTransform="matrix(0.861594, 0, 0, 0.880826, 70.047026, 53.285157)">
      <stop offset="0" style="stop-color: rgb(255, 222, 253);"></stop>
      <stop offset="0.254" style="stop-color: rgb(215, 250, 255);"></stop>
      <stop offset="0.475" style="stop-color: rgb(255, 221, 221);"></stop>
      <stop offset="0.648" style="stop-color: rgb(245, 244, 213);"></stop>
      <stop offset="0.839" style="stop-color: rgb(255, 213, 244);"></stop>
      <stop offset="1" style="stop-color: rgb(202, 255, 239);"></stop>
    </linearGradient>
  </defs>
  <rect width="100%" height="100%" fill="url(#bg)"/>
</svg>